<?xml version="1.0" encoding="UTF-8" standalone="no"?>
<!-- Created with Inkscape (http://www.inkscape.org/) -->

<svg
   width="144mm"
   height="312mm"
   viewBox="0 0 144 312"
   version="1.1"
   id="svg1"
   xmlns:inkscape="http://www.inkscape.org/namespaces/inkscape"
   xmlns:sodipodi="http://sodipodi.sourceforge.net/DTD/sodipodi-0.dtd"
   xmlns:xlink="http://www.w3.org/1999/xlink"
   xmlns="http://www.w3.org/2000/svg"
   xmlns:svg="http://www.w3.org/2000/svg">
  <sodipodi:namedview
     id="namedview1"
     pagecolor="#191919"
     bordercolor="#eeeeee"
     borderopacity="0"
     inkscape:showpageshadow="0"
     inkscape:pageopacity="0"
     inkscape:pagecheckerboard="0"
     inkscape:deskcolor="#505050"
     inkscape:document-units="mm" />
  <defs
     id="defs1">
    <pattern
       inkscape:collect="always"
       xlink:href="#shading26"
       preserveAspectRatio="xMidYMid"
       id="pattern17"
       patternTransform="matrix(0.5,0,0,0.5,213.95313,1661.1855)" />
    <clipPath
       clipPathUnits="userSpaceOnUse"
       id="clipPath54">
      <path
         id="path54"
         style="stroke-width:0.0999999;stroke-linecap:square;paint-order:markers fill stroke;stop-color:#000000"
         d="m 1691.1994,-792.32001 h 1634.8919 v 92.82806 H 1691.1994 Z" />
    </clipPath>
    <pattern
       patternUnits="userSpaceOnUse"
       width="458.91419"
       height="32.1666"
       patternTransform="translate(213.95313,1661.1855) scale(0.50)"
       preserveAspectRatio="xMidYMid"
       id="shading26"
       style="fill:#000000"
       inkscape:label="Zigzag vertical lines shading"
       inkscape:collect="always"
       inkscape:isstock="true">
      <path
         style="fill-rule:nonzero;stroke:none;stroke-width:0.1;stroke-linecap:square;paint-order:markers fill stroke;stop-color:#000000"
         d="m 1805.253,-758.46472 c 2.0199,-1.6381 19.9642,8.10228 21.9841,6.46418 21.6198,-17.53283 46.2727,-37.64976 73.5246,-59.981 v 0 c 25.9809,19.65985 54.0444,40.83546 83.863,63.2885 l 10.6075,7.98549 10.4529,-7.68367 c 27.0646,-19.89942 55.5585,-40.88668 85.2364,-62.77519 v 0 c 27.7606,18.37638 56.4868,37.37105 85.989,56.86265 l 8.4807,5.6026 8.226,-5.34235 c 28.4598,-18.48466 57.6391,-37.45176 87.3659,-56.7859 v 0 c 28.9846,16.55965 58.4587,33.38981 88.2675,50.40499 l 6.2651,3.57611 6.0027,-3.36923 c 29.5517,-16.58735 59.4322,-33.36536 89.4887,-50.24537 v 0 c 30.0302,14.47678 60.2186,29.02709 90.4154,43.58131 l 4.2068,2.02761 3.9808,-1.87912 c 30.5113,-14.40273 61.0311,-28.80967 91.403,-43.14415 30.9776,12.19206 61.7896,24.32173 92.2716,36.32702 l 2.456,0.9673 2.2912,-0.87545 c 31.4044,-11.99933 62.4587,-23.85885 92.9812,-35.50596 v 0 c 31.8985,9.7531 63.2067,19.33577 93.7183,28.6884 l 1.1227,0.34414 1.0302,-0.30014 c 32.3552,-9.4259 63.8161,-18.57513 94.1348,-27.37102 33.0276,7.23306 64.6894,14.19252 94.6654,20.81424 l 0.2874,0.0635 0.2604,-0.0518 c 33.9102,-6.74391 65.6711,-13.01584 94.819,-18.71395 v 0 c 35.9763,4.87029 67.9479,9.29314 95.0397,13.17078 -27.1102,-3.88028 -59.0638,-8.60724 -94.9917,-14.02894 l -0.067,-0.0101 -0.073,0.0131 c -29.166,5.24521 -60.9646,10.90129 -94.9296,16.89548 v 0 c -29.945,-7.29193 -61.5634,-15.02639 -94.536,-23.11898 l -0.5817,-0.14278 -0.639,0.1683 c -30.3517,7.994 -61.8539,16.26941 -94.2589,24.76558 v 0 c -30.4835,-10.24387 -61.7575,-20.76785 -93.6151,-31.49861 l -1.6023,-0.53972 -1.7314,0.6061 c -30.5409,10.69114 -61.6186,21.56098 -93.0524,32.54935 v 0 c -30.4769,-13.00991 -61.279,-26.16438 -92.2405,-39.38965 l -3.0877,-1.31894 -3.2854,1.43846 c -30.361,13.29293 -60.8752,26.65035 -91.3881,40.00719 v 0 c -30.226,-15.62318 -60.4371,-31.23836 -90.4809,-46.76407 l -4.9574,-2.56184 -5.2057,2.73972 c -30.0066,15.79238 -59.8462,31.49984 -89.3693,47.04623 v 0 c -29.8816,-18.11236 -59.4157,-36.00744 -88.4434,-53.58593 l -7.0991,-4.2989 -7.365,4.53346 c -29.6279,18.23811 -58.7274,36.16094 -87.1317,53.6691 -29.6324,-20.57281 -58.4593,-40.56911 -86.2836,-59.84778 l -9.3564,-6.4819 -9.5787,6.76494 c -29.5053,20.84087 -57.8757,40.90538 -84.878,60.03398 v 0 c -30.0663,-23.44287 -58.2811,-45.39239 -84.2942,-65.56618 l -11.4535,-8.87805 -11.4711,9.19271 c -32.0177,25.67056 -60.6296,48.71345 -85.1752,68.61894 -2.0199,1.6381 3.8046,21.20709 1.7847,22.84519 z m 0,46.41401 c 2.0199,-1.6381 19.9642,8.10228 21.9841,6.46418 21.6198,-17.53283 46.2727,-37.64976 73.5246,-59.981 v 0 c 25.9809,19.65985 54.0444,40.83546 83.863,63.2885 l 10.6075,7.98549 10.4529,-7.68367 c 27.0646,-19.89942 55.5585,-40.88668 85.2364,-62.77519 v 0 c 27.7606,18.37638 56.4868,37.37105 85.989,56.86265 l 8.4807,5.6026 8.226,-5.34235 c 28.4598,-18.48466 57.6391,-37.45176 87.3659,-56.7859 v 0 c 28.9846,16.55965 58.4587,33.38981 88.2675,50.40499 l 6.2651,3.57611 6.0027,-3.36923 c 29.5517,-16.58735 59.4322,-33.36536 89.4887,-50.24537 v 0 c 30.0302,14.47678 60.2186,29.02709 90.4154,43.58131 l 4.2068,2.02761 3.9808,-1.87912 c 30.5113,-14.40273 61.0311,-28.80967 91.403,-43.14415 30.9776,12.19206 61.7896,24.32173 92.2716,36.32702 l 2.456,0.9673 2.2912,-0.87545 c 31.4044,-11.99933 62.4587,-23.85885 92.9812,-35.50596 v 0 c 31.8985,9.75309 63.2067,19.33577 93.7183,28.6884 l 1.1227,0.34414 1.0302,-0.30014 c 32.3552,-9.4259 63.8161,-18.57513 94.1348,-27.37103 33.0276,7.23307 64.6894,14.19253 94.6654,20.81425 l 0.2874,0.0635 0.2604,-0.0518 c 33.9102,-6.74391 65.6711,-13.01584 94.819,-18.71395 v 0 c 35.9763,4.87029 67.9479,9.29314 95.0397,13.17078 -27.1102,-3.88028 -59.0638,-8.60724 -94.9917,-14.02894 l -0.067,-0.0101 -0.073,0.0131 c -29.166,5.24521 -60.9646,10.90129 -94.9296,16.89548 v 0 c -29.945,-7.29193 -61.5634,-15.02639 -94.536,-23.11899 l -0.5817,-0.14277 -0.639,0.1683 c -30.3517,7.994 -61.8539,16.26941 -94.2589,24.76558 v 0 c -30.4835,-10.24387 -61.7575,-20.76785 -93.6151,-31.49861 l -1.6023,-0.53972 -1.7314,0.6061 c -30.5409,10.69114 -61.6186,21.56098 -93.0524,32.54935 v 0 c -30.4769,-13.00991 -61.279,-26.16438 -92.2405,-39.38965 l -3.0877,-1.31894 -3.2854,1.43846 c -30.361,13.29292 -60.8752,26.65035 -91.3881,40.00719 v 0 c -30.226,-15.62318 -60.4371,-31.23836 -90.4809,-46.76407 l -4.9574,-2.56184 -5.2057,2.73972 c -30.0066,15.79238 -59.8462,31.49984 -89.3693,47.04623 v 0 c -29.8816,-18.11237 -59.4157,-36.00744 -88.4434,-53.58593 l -7.0991,-4.2989 -7.365,4.53346 c -29.6279,18.23811 -58.7274,36.16094 -87.1317,53.6691 -29.6324,-20.57281 -58.4593,-40.56911 -86.2836,-59.84778 l -9.3564,-6.4819 -9.5787,6.76494 c -29.5053,20.84087 -57.8757,40.90538 -84.878,60.03398 v 0 c -30.0663,-23.44287 -58.2811,-45.39239 -84.2942,-65.56618 l -11.4535,-8.87805 -11.4711,9.19271 c -32.0177,25.67056 -60.6296,48.71345 -85.1752,68.61894 -2.0199,1.6381 3.8046,21.20709 1.7847,22.84519 z m 0,46.41401 c 2.0199,-1.6381 19.9642,8.10228 21.9841,6.46418 21.6198,-17.53283 46.2727,-37.64976 73.5246,-59.981 v 0 c 25.9809,19.65985 54.0444,40.83546 83.863,63.2885 l 10.6075,7.98549 10.4529,-7.68367 c 27.0646,-19.89942 55.5585,-40.88668 85.2364,-62.77519 v 0 c 27.7606,18.37638 56.4868,37.37105 85.989,56.86265 l 8.4807,5.6026 8.226,-5.34235 c 28.4598,-18.48466 57.6391,-37.45176 87.3659,-56.78591 v 0 c 28.9846,16.55966 58.4587,33.38982 88.2675,50.405 l 6.2651,3.57611 6.0027,-3.36923 c 29.5517,-16.58735 59.4322,-33.36536 89.4887,-50.24537 v 0 c 30.0302,14.47678 60.2186,29.02709 90.4154,43.58131 l 4.2068,2.02761 3.9808,-1.87912 c 30.5113,-14.40274 61.0311,-28.80967 91.403,-43.14415 30.9776,12.19206 61.7896,24.32173 92.2716,36.32702 l 2.456,0.9673 2.2912,-0.87545 c 31.4044,-11.99933 62.4587,-23.85885 92.9812,-35.50596 v 0 c 31.8985,9.75309 63.2067,19.33577 93.7183,28.6884 l 1.1227,0.34414 1.0302,-0.30014 c 32.3552,-9.4259 63.8161,-18.57513 94.1348,-27.37103 33.0276,7.23307 64.6894,14.19253 94.6654,20.81425 l 0.2874,0.0635 0.2604,-0.0518 c 33.9102,-6.74391 65.6711,-13.01584 94.819,-18.71395 v 0 c 35.9763,4.87029 67.9479,9.29314 95.0397,13.17078 -27.1102,-3.88028 -59.0638,-8.60724 -94.9917,-14.02894 l -0.067,-0.0101 -0.073,0.0131 c -29.166,5.24521 -60.9646,10.90129 -94.9296,16.89547 v 0 c -29.945,-7.29193 -61.5634,-15.02638 -94.536,-23.11898 l -0.5817,-0.14277 -0.639,0.1683 c -30.3517,7.994 -61.8539,16.26941 -94.2589,24.76558 v 0 c -30.4835,-10.24387 -61.7575,-20.76785 -93.6151,-31.49861 l -1.6023,-0.53972 -1.7314,0.6061 c -30.5409,10.69114 -61.6186,21.56098 -93.0524,32.54935 v 0 c -30.4769,-13.00991 -61.279,-26.16438 -92.2405,-39.38965 l -3.0877,-1.31894 -3.2854,1.43846 c -30.361,13.29292 -60.8752,26.65034 -91.3881,40.00719 v 0 c -30.226,-15.62318 -60.4371,-31.23836 -90.4809,-46.76407 l -4.9574,-2.56184 -5.2057,2.73972 c -30.0066,15.79238 -59.8462,31.49984 -89.3693,47.04622 v 0 c -29.8816,-18.11236 -59.4157,-36.00743 -88.4434,-53.58592 l -7.0991,-4.2989 -7.365,4.53346 c -29.6279,18.2381 -58.7274,36.16094 -87.1317,53.6691 -29.6324,-20.57281 -58.4593,-40.56911 -86.2836,-59.84778 l -9.3564,-6.4819 -9.5787,6.76494 c -29.5053,20.84087 -57.8757,40.90538 -84.878,60.03398 v 0 c -30.0663,-23.44287 -58.2811,-45.39239 -84.2942,-65.56618 l -11.4535,-8.87805 -11.4711,9.19271 c -32.0177,25.67055 -60.6296,48.71345 -85.1752,68.61894 -2.0199,1.6381 3.8046,21.20709 1.7847,22.84519 z m 0,46.41401 c 2.0199,-1.6381 19.9642,8.10228 21.9841,6.46418 21.6198,-17.53283 46.2727,-37.64976 73.5246,-59.981 v 0 c 25.9809,19.65985 54.0444,40.83546 83.863,63.2885 l 10.6075,7.98549 10.4529,-7.68367 c 27.0646,-19.89942 55.5585,-40.88668 85.2364,-62.77519 v 0 c 27.7606,18.37638 56.4868,37.37105 85.989,56.86265 l 8.4807,5.6026 8.226,-5.34235 c 28.4598,-18.48466 57.6391,-37.45176 87.3659,-56.78591 v 0 c 28.9846,16.55966 58.4587,33.38982 88.2675,50.405 l 6.2651,3.57611 6.0027,-3.36923 c 29.5517,-16.58735 59.4322,-33.36536 89.4887,-50.24537 v 0 c 30.0302,14.47678 60.2186,29.02709 90.4154,43.58131 l 4.2068,2.02761 3.9808,-1.87913 c 30.5113,-14.40273 61.0311,-28.80966 91.403,-43.14414 30.9776,12.19206 61.7896,24.32173 92.2716,36.32702 l 2.456,0.9673 2.2912,-0.87545 c 31.4044,-11.99933 62.4587,-23.85885 92.9812,-35.50596 v 0 c 31.8985,9.75309 63.2067,19.33577 93.7183,28.6884 l 1.1227,0.34414 1.0302,-0.30014 c 32.3552,-9.4259 63.8161,-18.57513 94.1348,-27.37103 33.0276,7.23307 64.6894,14.19253 94.6654,20.81425 l 0.2874,0.0635 0.2604,-0.0518 c 33.9102,-6.74391 65.6711,-13.01584 94.819,-18.71395 v 0 c 35.9763,4.87029 67.9479,9.29314 95.0397,13.17078 -27.1102,-3.88028 -59.0638,-8.60724 -94.9917,-14.02894 l -0.067,-0.0101 -0.073,0.0131 c -29.166,5.24521 -60.9646,10.90129 -94.9296,16.89547 v 0 c -29.945,-7.29193 -61.5634,-15.02638 -94.536,-23.11898 l -0.5817,-0.14277 -0.639,0.1683 c -30.3517,7.994 -61.8539,16.26941 -94.2589,24.76558 v 0 c -30.4835,-10.24387 -61.7575,-20.76785 -93.6151,-31.49861 l -1.6023,-0.53972 -1.7314,0.6061 c -30.5409,10.69114 -61.6186,21.56098 -93.0524,32.54935 v 0 c -30.4769,-13.00991 -61.279,-26.16438 -92.2405,-39.38965 l -3.0877,-1.31894 -3.2854,1.43846 c -30.361,13.29292 -60.8752,26.65034 -91.3881,40.00719 v 0 c -30.226,-15.62319 -60.4371,-31.23836 -90.4809,-46.76407 l -4.9574,-2.56184 -5.2057,2.73972 c -30.0066,15.79238 -59.8462,31.49983 -89.3693,47.04622 v 0 c -29.8816,-18.11236 -59.4157,-36.00743 -88.4434,-53.58592 l -7.0991,-4.2989 -7.365,4.53346 c -29.6279,18.2381 -58.7274,36.16094 -87.1317,53.6691 -29.6324,-20.57281 -58.4593,-40.56911 -86.2836,-59.84778 l -9.3564,-6.4819 -9.5787,6.76494 c -29.5053,20.84087 -57.8757,40.90538 -84.878,60.03398 v 0 c -30.0663,-23.44287 -58.2811,-45.39239 -84.2942,-65.56618 l -11.4535,-8.87805 -11.4711,9.19271 c -32.0177,25.67055 -60.6296,48.71345 -85.1752,68.61894 -2.0199,1.6381 3.8046,21.20709 1.7847,22.84519 z m 0,46.41401 c 2.0199,-1.6381 19.9642,8.10228 21.9841,6.46418 21.6198,-17.53283 46.2727,-37.64976 73.5246,-59.981 v 0 c 25.9809,19.65985 54.0444,40.83546 83.863,63.2885 l 10.6075,7.98549 10.4529,-7.68367 c 27.0646,-19.89943 55.5585,-40.88668 85.2364,-62.77519 v 0 c 27.7606,18.37638 56.4868,37.37105 85.989,56.86265 l 8.4807,5.6026 8.226,-5.34235 c 28.4598,-18.48466 57.6391,-37.45176 87.3659,-56.78591 v 0 c 28.9846,16.55966 58.4587,33.38982 88.2675,50.40499 l 6.2651,3.57612 6.0027,-3.36923 c 29.5517,-16.58735 59.4322,-33.36536 89.4887,-50.24537 v 0 c 30.0302,14.47678 60.2186,29.02709 90.4154,43.58131 l 4.2068,2.02761 3.9808,-1.87913 c 30.5113,-14.40273 61.0311,-28.80966 91.403,-43.14414 30.9776,12.19206 61.7896,24.32173 92.2716,36.32701 l 2.456,0.9673 2.2912,-0.87544 c 31.4044,-11.99933 62.4587,-23.85885 92.9812,-35.50596 v 0 c 31.8985,9.75309 63.2067,19.33577 93.7183,28.6884 l 1.1227,0.34414 1.0302,-0.30014 c 32.3552,-9.4259 63.8161,-18.57513 94.1348,-27.37103 33.0276,7.23307 64.6894,14.19253 94.6654,20.81425 l 0.2874,0.0635 0.2604,-0.0518 c 33.9102,-6.74391 65.6711,-13.01584 94.819,-18.71395 v 0 c 35.9763,4.87029 67.9479,9.29314 95.0397,13.17078 -27.1102,-3.88028 -59.0638,-8.60724 -94.9917,-14.02894 l -0.067,-0.0101 -0.073,0.0131 c -29.166,5.24522 -60.9646,10.9013 -94.9296,16.89548 v 0 c -29.945,-7.29193 -61.5634,-15.02638 -94.536,-23.11898 l -0.5817,-0.14277 -0.639,0.1683 c -30.3517,7.994 -61.8539,16.26941 -94.2589,24.76558 v 0 c -30.4835,-10.24387 -61.7575,-20.76785 -93.6151,-31.49861 l -1.6023,-0.53972 -1.7314,0.6061 c -30.5409,10.69114 -61.6186,21.56098 -93.0524,32.54935 v 0 c -30.4769,-13.00991 -61.279,-26.16438 -92.2405,-39.38965 l -3.0877,-1.31894 -3.2854,1.43846 c -30.361,13.29292 -60.8752,26.65034 -91.3881,40.00719 v 0 c -30.226,-15.62319 -60.4371,-31.23836 -90.4809,-46.76407 l -4.9574,-2.56184 -5.2057,2.73972 c -30.0066,15.79238 -59.8462,31.49983 -89.3693,47.04622 v 0 c -29.8816,-18.11236 -59.4157,-36.00743 -88.4434,-53.58592 l -7.0991,-4.2989 -7.365,4.53345 c -29.6279,18.23811 -58.7274,36.16095 -87.1317,53.66911 -29.6324,-20.57281 -58.4593,-40.56911 -86.2836,-59.84778 l -9.3564,-6.4819 -9.5787,6.76494 c -29.5053,20.84087 -57.8757,40.90538 -84.878,60.03398 v 0 c -30.0663,-23.44287 -58.2811,-45.39239 -84.2942,-65.56618 l -11.4535,-8.87805 -11.4711,9.19271 c -32.0177,25.67055 -60.6296,48.71345 -85.1752,68.61894 -2.0199,1.6381 3.8046,21.20709 1.7847,22.84519 z"
         id="use24"
         inkscape:linked-fill="path21"
         sodipodi:nodetypes="ccccccccccccccccc"
         clip-path="url(#clipPath54)"
         transform="matrix(0.30131154,0,0,0.34651807,-543.27542,274.5532)" />
    </pattern>
    <linearGradient
       id="linearGradient8"
       inkscape:collect="always">
      <stop
         style="stop-color:#6549c8;stop-opacity:1;"
         offset="0"
         id="stop7" />
      <stop
         style="stop-color:#191919;stop-opacity:0;"
         offset="1"
         id="stop8" />
    </linearGradient>
    <linearGradient
       id="linearGradient6"
       inkscape:collect="always">
      <stop
         style="stop-color:#8c0505;stop-opacity:1;"
         offset="0"
         id="stop5" />
      <stop
         style="stop-color:#191919;stop-opacity:0;"
         offset="1"
         id="stop6" />
    </linearGradient>
    <linearGradient
       id="linearGradient3"
       inkscape:collect="always">
      <stop
         style="stop-color:#9a2c6d;stop-opacity:1;"
         offset="0"
         id="stop3" />
      <stop
         style="stop-color:#191919;stop-opacity:0;"
         offset="1"
         id="stop4" />
    </linearGradient>
    <linearGradient
       inkscape:collect="always"
       xlink:href="#linearGradient3"
       id="linearGradient4"
       x1="95.116959"
       y1="224.13699"
       x2="95.116959"
       y2="105.94711"
       gradientUnits="userSpaceOnUse"
       gradientTransform="translate(-0.94175208,14.126274)" />
    <clipPath
       clipPathUnits="userSpaceOnUse"
       id="clipPath5">
      <use
         x="0"
         y="0"
         xlink:href="#g4"
         id="use5" />
    </clipPath>
    <linearGradient
       inkscape:collect="always"
       xlink:href="#linearGradient6"
       id="linearGradient5"
       gradientUnits="userSpaceOnUse"
       gradientTransform="translate(11.301025,14.126274)"
       x1="95.116959"
       y1="224.13699"
       x2="95.116959"
       y2="105.94711" />
    <linearGradient
       inkscape:collect="always"
       xlink:href="#linearGradient8"
       id="linearGradient7"
       gradientUnits="userSpaceOnUse"
       gradientTransform="translate(-13.184527,14.126274)"
       x1="95.116959"
       y1="224.13699"
       x2="95.116959"
       y2="105.94711" />
    <clipPath
       clipPathUnits="userSpaceOnUse"
       id="clipPath10">
      <use
         x="0"
         y="0"
         xlink:href="#g9"
         id="use10" />
    </clipPath>
  </defs>
  <g
     inkscape:label="Layer 1"
     inkscape:groupmode="layer"
     id="layer1">
    <rect
       style="opacity:1;fill:#191919;fill-opacity:1;stroke:none;stroke-width:1.031;stroke-linecap:square;stroke-linejoin:miter;stroke-dasharray:2.062, 4.12401;stroke-dashoffset:0;stroke-opacity:1"
       id="rect17"
       width="144"
       height="312"
       x="0"
       y="0"
       ry="6.2096858" />
    <rect
       style="opacity:0.152632;fill:url(#pattern17);fill-opacity:1;stroke:none;stroke-width:10;stroke-linecap:round;stroke-linejoin:round;stroke-opacity:1"
       id="rect2"
       width="23.135651"
       height="341.30045"
       x="120.86435"
       y="-29.300449"
       ry="6.2096858" />
    <g
       id="g5"
       clip-path="url(#clipPath5)">
      <g
         inkscape:label="Clip"
         id="g4">
        <circle
           style="opacity:1;fill:#313131;fill-opacity:1;stroke:none;stroke-width:10;stroke-linecap:round;stroke-linejoin:round"
           id="path1"
           cx="116.30638"
           cy="219.56827"
           r="63.568264" />
      </g>
      <rect
         style="opacity:1;fill:url(#linearGradient4);fill-opacity:1;stroke:none;stroke-width:10;stroke-linecap:round;stroke-linejoin:round"
         id="rect3"
         width="12.242777"
         height="118.18989"
         x="88.053818"
         y="120.07339"
         ry="0" />
      <rect
         style="opacity:1;fill:url(#linearGradient5);fill-opacity:1;stroke:none;stroke-width:10;stroke-linecap:round;stroke-linejoin:round"
         id="rect5"
         width="12.242777"
         height="118.18989"
         x="100.29659"
         y="120.07339"
         ry="0" />
      <rect
         style="opacity:1;fill:url(#linearGradient7);fill-opacity:1;stroke:none;stroke-width:10;stroke-linecap:round;stroke-linejoin:round"
         id="rect6"
         width="12.242777"
         height="118.18989"
         x="75.811043"
         y="120.07339"
         ry="0" />
      <g
         inkscape:label="Clip"
         id="g8" />
    </g>
    <circle
       style="opacity:1;fill:#ffffff;fill-opacity:1;stroke:none;stroke-width:10;stroke-linecap:round;stroke-linejoin:round"
       id="path2"
       cx="37.434647"
       cy="115.12919"
       r="4.9441981" />
    <g
       id="g10"
       clip-path="url(#clipPath10)"
       style="fill:none">
      <circle
         style="opacity:1;fill:none;fill-opacity:1;stroke:#ffffff;stroke-width:1.031;stroke-linecap:square;stroke-linejoin:miter;stroke-dasharray:2.062, 4.12401;stroke-dashoffset:0;stroke-opacity:1"
         id="circle8"
         cx="116.31631"
         cy="219.56836"
         r="51.853004" />
      <g
         inkscape:label="Clip"
         id="g9"
         style="fill:none;fill-opacity:0.299712">
        <rect
           style="opacity:1;fill:none;fill-opacity:0.299712;stroke:#ffffff;stroke-width:2.63332;stroke-linecap:round;stroke-linejoin:round;stroke-dasharray:5.26663, 10.5332;stroke-dashoffset:0;stroke-opacity:0"
           id="rect8"
           width="154.52588"
           height="149.53148"
           x="114.18885"
           y="158.13948" />
      </g>
    </g>
    <rect
       x="-6.1632452"
       y="-4.0968695"
       width="159.73692"
       height="51.710064"
       style="fill:none;fill-opacity:1;stroke:none;stroke-width:0.720127;stroke-opacity:1"
       id="rect215" />
    <text
       xml:space="preserve"
       style="font-weight:600;font-size:8.63749px;font-family:'Roboto Mono';-inkscape-font-specification:'Roboto Mono Semi-Bold';opacity:1;fill:#191919;fill-opacity:1;stroke:none;stroke-width:2.80481;stroke-linecap:square;stroke-linejoin:miter;stroke-dasharray:5.60961, 11.2192;stroke-dashoffset:0;stroke-opacity:1"
       x="-94.223755"
       y="40.505005"
       id="text17"
       transform="rotate(-90)"><tspan
         sodipodi:role="line"
         id="tspan17"
         style="fill:#ffffff;fill-opacity:1;stroke-width:2.80481"
         x="-94.223755"
         y="40.505005">ICED TEA</tspan></text>
    <text
       xml:space="preserve"
       style="font-weight:600;font-size:3.175px;font-family:'Roboto Mono';-inkscape-font-specification:'Roboto Mono Semi-Bold';opacity:1;fill:#ffffff;fill-opacity:1;stroke:none;stroke-width:1.031;stroke-linecap:square;stroke-linejoin:miter;stroke-dasharray:2.062, 4.12401;stroke-dashoffset:0;stroke-opacity:1"
       x="46.078926"
       y="55.19735"
       id="text18"><tspan
         sodipodi:role="line"
         id="tspan18"
         style="stroke-width:1.031"
         x="46.078926"
         y="55.19735">Gonna crack a rib</tspan><tspan
         sodipodi:role="line"
         style="stroke-width:1.031"
         x="46.078926"
         y="59.1661"
         id="tspan19">when I get home.</tspan><tspan
         sodipodi:role="line"
         style="stroke-width:1.031"
         x="46.078926"
         y="63.13485"
         id="tspan31" /><tspan
         sodipodi:role="line"
         style="stroke-width:1.031"
         x="46.078926"
         y="67.1036"
         id="tspan21">    Gonna bury you</tspan><tspan
         sodipodi:role="line"
         style="stroke-width:1.031"
         x="46.078926"
         y="71.07235"
         id="tspan22">    in my favorite hole.</tspan><tspan
         sodipodi:role="line"
         style="stroke-width:1.031"
         x="46.078926"
         y="75.0411"
         id="tspan23">I made a bloody mess</tspan><tspan
         sodipodi:role="line"
         style="stroke-width:1.031"
         x="46.078926"
         y="79.00985"
         id="tspan24">in the kitchen sink.</tspan><tspan
         sodipodi:role="line"
         style="stroke-width:1.031"
         x="46.078926"
         y="82.9786"
         id="tspan32" /><tspan
         sodipodi:role="line"
         style="stroke-width:1.031"
         x="46.078926"
         y="86.94735"
         id="tspan33" /><tspan
         sodipodi:role="line"
         style="stroke-width:1.031"
         x="46.078926"
         y="90.9161"
         id="tspan34" /><tspan
         sodipodi:role="line"
         style="stroke-width:1.031"
         x="46.078926"
         y="94.88485"
         id="tspan35" /><tspan
         sodipodi:role="line"
         style="stroke-width:1.031"
         x="46.078926"
         y="98.8536"
         id="tspan25">    I tried to fix myself</tspan><tspan
         sodipodi:role="line"
         style="stroke-width:1.031"
         x="46.078926"
         y="102.82235"
         id="tspan26">    but I didn't think.</tspan><tspan
         sodipodi:role="line"
         style="stroke-width:1.031"
         x="46.078926"
         y="106.7911"
         id="tspan36" /><tspan
         sodipodi:role="line"
         style="stroke-width:1.031"
         x="46.078926"
         y="110.75985"
         id="tspan37" /><tspan
         sodipodi:role="line"
         style="stroke-width:1.031"
         x="46.078926"
         y="114.7286"
         id="tspan38" /><tspan
         sodipodi:role="line"
         style="stroke-width:1.031"
         x="46.078926"
         y="118.69735"
         id="tspan39" /><tspan
         sodipodi:role="line"
         style="stroke-width:1.031"
         x="46.078926"
         y="122.6661"
         id="tspan40" /><tspan
         sodipodi:role="line"
         style="stroke-width:1.031"
         x="46.078926"
         y="126.63485"
         id="tspan41" /><tspan
         sodipodi:role="line"
         style="stroke-width:1.031"
         x="46.078926"
         y="130.60359"
         id="tspan42" /><tspan
         sodipodi:role="line"
         style="stroke-width:1.031"
         x="46.078926"
         y="134.57234"
         id="tspan27" /><tspan
         sodipodi:role="line"
         style="stroke-width:1.031"
         x="46.078926"
         y="138.54109"
         id="tspan28">    They said</tspan><tspan
         sodipodi:role="line"
         style="stroke-width:1.031"
         x="46.078926"
         y="142.50984"
         id="tspan29">&quot;We just want to talk with you&quot;</tspan><tspan
         sodipodi:role="line"
         style="stroke-width:1.031"
         x="46.078926"
         y="146.47859"
         id="tspan30">&quot;We just want to walk you through&quot;</tspan><tspan
         sodipodi:role="line"
         style="stroke-width:1.031"
         x="46.078926"
         y="150.44734"
         id="tspan20" /></text>
    <text
       xml:space="preserve"
       style="font-weight:600;font-size:3.175px;font-family:'Roboto Mono';-inkscape-font-specification:'Roboto Mono Semi-Bold';opacity:1;fill:#ffffff;fill-opacity:1;stroke:none;stroke-width:1.031;stroke-linecap:square;stroke-linejoin:miter;stroke-dasharray:2.062, 4.12401;stroke-dashoffset:0;stroke-opacity:1"
       x="-312"
       y="21.453697"
       id="text43"
       transform="rotate(-90)"><tspan
         sodipodi:role="line"
         id="tspan43"
         style="stroke-width:1.031"
         x="-312"
         y="21.453697">Mrs. Magic to and fro, Please give me one last show, Loosen my mind from within, Before it starts to wear and thin, I don't Know, I don't know what I'm doing here.</tspan></text>
    <circle
       style="opacity:1;fill:#ffffff;fill-opacity:1;stroke:none;stroke-width:10;stroke-linecap:round;stroke-linejoin:round"
       id="circle43"
       cx="37.434647"
       cy="290.59891"
       r="4.9441981" />
    <circle
       style="opacity:1;fill:#ffffff;fill-opacity:1;stroke:none;stroke-width:10;stroke-linecap:round;stroke-linejoin:round"
       id="circle44"
       cx="37.434647"
       cy="273.45148"
       r="4.9441981" />
  </g>
</svg>
