<?xml version="1.0" encoding="UTF-8" standalone="no"?>
<!-- Created with Inkscape (http://www.inkscape.org/) -->

<svg
   width="500mm"
   height="120mm"
   viewBox="0 0 500 120"
   version="1.1"
   id="svg5"
   xml:space="preserve"
   xmlns:inkscape="http://www.inkscape.org/namespaces/inkscape"
   xmlns:sodipodi="http://sodipodi.sourceforge.net/DTD/sodipodi-0.dtd"
   xmlns="http://www.w3.org/2000/svg"
   xmlns:svg="http://www.w3.org/2000/svg"><sodipodi:namedview
     id="namedview7"
     pagecolor="#ffffff"
     bordercolor="#000000"
     borderopacity="0.25"
     inkscape:showpageshadow="2"
     inkscape:pageopacity="0.0"
     inkscape:pagecheckerboard="0"
     inkscape:deskcolor="#d1d1d1"
     inkscape:document-units="mm"
     showgrid="false" /><defs
     id="defs2" /><g
     inkscape:label="Layer 1"
     inkscape:groupmode="layer"
     id="layer1"><g
       inkscape:label="Layer 1"
       id="layer1-9"
       transform="matrix(0.35672734,0,0,0.35672734,28.716434,68.04919)"><g
         id="g2176"
         transform="translate(-2.7515128e-4,-111.44361)"><g
           aria-label="{ }"
           transform="matrix(0.86151966,0,0,1.0002373,443.1019,-143.19311)"
           id="text236"
           style="font-size:315.648px;line-height:2386.29px;-inkscape-font-specification:sans-serif;text-align:end;text-anchor:end;fill:#d9e7f3;stroke-width:1.24271;stroke-linecap:round;stroke-dashoffset:3.77953;paint-order:stroke fill markers"><path
             d="m 124.19027,382.829 5.24025,-24.35175 q -7.70625,0.30825 -12.63825,-4.00725 -4.77788,-4.16138 -7.55213,-11.09701 -2.77425,-6.93562 -3.85312,-15.56662 -0.92475,-8.47688 -0.92475,-16.79963 v -25.12237 q 0,-18.34088 -8.939254,-32.36625 -8.939251,-14.02538 -28.050751,-21.42338 18.957375,-7.398 27.896626,-21.5775 9.093379,-14.1795 9.093379,-32.52038 v -25.12237 q 0,-8.32275 0.30825,-16.79963 0.46237,-8.631 2.77425,-15.56662 2.31187,-6.93563 7.398,-11.097 5.08612,-4.3155 14.48775,-4.00725 l -5.24025,-24.197629 q -14.95013,0 -25.738879,5.702625 -10.788751,5.702626 -17.416126,14.641874 -8.0145,10.32638 -11.7135,24.35175 -3.699,13.87125 -3.699,26.97188 v 25.12237 q 0,20.80688 -9.555751,29.74613 -9.55575,8.93925 -29.129626,8.93925 v 30.825 q 19.573876,0 29.129626,8.93925 9.555751,8.93925 9.555751,29.43788 v 25.12237 q 0,12.17588 3.236625,24.81413 3.39075,12.79237 10.78875,23.427 6.935625,10.17225 18.032626,16.79963 11.251124,6.7815 26.509504,6.7815 z"
             style="font-weight:bold;font-family:'Roboto Mono';-inkscape-font-specification:'Roboto Mono Bold'"
             id="path305" /><path
             d="m 409.32153,358.47725 5.24025,24.35175 q 15.25837,0 26.35537,-6.62738 11.25113,-6.47325 18.18675,-17.10787 6.93563,-10.17226 10.4805,-23.11876 3.54488,-12.9465 3.54488,-24.96825 v -25.12237 q 0,-7.24388 1.07887,-12.9465 1.233,-5.85675 3.54488,-10.17225 4.3155,-8.0145 12.79238,-11.55938 8.47687,-3.699 21.26925,-3.699 v -30.825 q -11.40525,0 -19.57388,-2.92837 -8.0145,-2.92838 -12.48413,-9.2475 -3.39075,-4.62375 -5.08612,-11.25113 -1.54125,-6.62738 -1.54125,-15.25838 v -25.12237 q 0,-11.7135 -2.92838,-24.19763 -2.77425,-12.63825 -9.55575,-22.8105 -7.08975,-11.251123 -18.34087,-17.878499 -11.25113,-6.7815 -27.7425,-6.7815 l -5.24025,24.197629 q 9.40162,-0.30825 14.48775,4.00725 5.08612,4.16137 7.398,11.097 2.31187,6.93562 2.62012,15.56662 0.46238,8.47688 0.46238,16.79963 v 25.12237 q 0,10.63463 2.92837,20.19038 2.92838,9.40163 9.09338,17.10788 4.16137,5.24025 9.864,9.55575 5.70262,4.3155 13.10062,7.398 -9.09337,3.85312 -15.72075,9.40162 -6.47325,5.39438 -10.78875,12.33 -4.3155,6.93563 -6.47325,14.95013 -2.00362,8.0145 -2.00362,16.95375 v 25.12237 q 0,8.32275 -1.07888,16.79963 -1.07887,8.631 -3.85312,15.56662 -2.77425,6.93563 -7.70625,11.09701 -4.77788,4.3155 -12.33,4.00725 z"
             style="font-weight:bold;font-family:'Roboto Mono';-inkscape-font-specification:'Roboto Mono Bold'"
             id="path307" /></g><g
           id="g1399"
           transform="matrix(0.68833938,0,0,0.68833938,503.0898,-60.487255)"
           style="stroke-width:40.4578;stroke-dasharray:none"><path
             id="rect1002"
             style="fill:none;stroke:#d9e7f3;stroke-width:40.4578;stroke-linecap:butt;stroke-dasharray:none;stroke-dashoffset:3.77953;paint-order:stroke fill markers"
             d="M 162.61967,123.36662 H 337.35485 L 303.62519,376.63338 H 195.96925 Z"
             sodipodi:nodetypes="ccccc" /><path
             style="fill:none;fill-opacity:1;stroke:#d9e7f3;stroke-width:40.4578;stroke-linecap:butt;stroke-dasharray:none;stroke-dashoffset:3.77953;stroke-opacity:1;paint-order:stroke fill markers"
             d="M 249.98726,123.36662 306.42581,51.633756"
             id="path1395" /></g><g
           aria-label="Tea"
           id="text1756"
           style="font-weight:bold;font-size:210.003px;line-height:22.0502px;font-family:'Roboto Mono';-inkscape-font-specification:'Roboto Mono Bold';text-align:end;text-anchor:end;fill:#d9e7f3;stroke-width:1.83131;stroke-dashoffset:3.77953;paint-order:stroke fill markers"><path
             d="M 1066.5585,33.61049 V 13.204925 H 950.2775 V 33.61049 h 45.73307 v 128.89345 h 24.50723 V 33.61049 Z"
             style="font-weight:500;-inkscape-font-specification:'Roboto Mono Medium'"
             id="path2178" /><path
             d="m 1139.0546,164.55475 q 16.2014,0 27.5834,-6.35752 11.4846,-6.35751 17.0217,-14.35567 l -13.1251,-12.71503 q -5.1271,6.5626 -13.0227,10.15152 -7.8956,3.48638 -17.0217,3.48638 -6.6652,0 -12.3049,-2.2559 -5.5372,-2.25589 -9.6388,-6.35751 -4.1016,-3.89654 -6.4601,-8.81849 -2.3584,-4.92194 -3.4863,-12.20232 v -0.5127 h 76.9054 v -10.56168 q 0,-11.894697 -3.1788,-21.943669 -3.1787,-10.048972 -9.4337,-17.32935 -6.255,-7.177837 -15.4836,-11.176917 -9.2287,-4.101622 -21.2259,-4.101622 -10.7668,0 -20.3031,4.101622 -9.4337,3.99908 -16.6115,11.484539 -7.1779,7.485459 -11.2795,18.047133 -4.1016,10.561675 -4.1016,23.584324 v 4.20416 q 0,11.382 3.8965,21.22589 3.9991,9.74135 11.2795,16.91919 7.2804,7.28037 17.4319,11.382 10.254,4.10162 22.5589,4.10162 z m -2.9737,-95.157615 q 6.1525,0 10.7668,2.153351 4.7169,2.050811 7.7931,5.537189 3.1787,3.588919 4.9219,8.408324 1.7432,4.716864 1.7432,9.536269 v 1.640648 h -52.1931 q 1.1279,-6.357513 3.4864,-11.381999 2.3584,-5.024486 5.8448,-8.613404 3.4863,-3.486378 7.8956,-5.332108 4.5118,-1.94827 9.7413,-1.94827 z"
             style="font-weight:500;-inkscape-font-specification:'Roboto Mono Medium'"
             id="path2180" /><path
             d="m 1284.1495,162.50394 h 25.0198 v -1.74319 q -2.0508,-4.3067 -3.1787,-10.25406 -1.0254,-6.04989 -1.0254,-13.53535 V 87.64935 q 0,-9.433729 -3.4864,-16.611566 -3.4864,-7.280378 -9.6388,-11.997242 -6.1524,-4.716865 -14.6633,-7.075297 -8.4083,-2.460973 -18.1497,-2.460973 -10.8693,0 -19.3801,2.871135 -8.4084,2.768595 -14.1506,7.588 -5.9474,4.716864 -9.0236,10.869296 -3.0762,6.152432 -3.1788,12.817566 h 24.6098 q 0,-3.178756 1.1279,-5.947351 1.2305,-2.871135 3.6915,-4.819405 2.461,-2.153351 6.1524,-3.383837 3.794,-1.230487 8.8185,-1.230487 5.5372,0 9.7413,1.435568 4.3068,1.333027 7.2804,3.89654 2.7686,2.563513 4.2042,6.049891 1.5381,3.486378 1.5381,7.793081 v 7.485458 h -17.8421 q -11.9972,0 -21.5335,2.255892 -9.4337,2.255892 -15.8937,6.562591 -6.9728,4.61433 -10.6643,11.68962 -3.5889,6.97276 -3.5889,16.09887 0,7.07529 2.7686,13.22773 2.8711,6.04989 7.9982,10.35659 5.0245,4.40924 12.0998,6.97275 7.1778,2.46098 15.7912,2.46098 5.3321,0 9.9464,-1.02541 4.6144,-1.0254 8.6134,-2.87113 3.9991,-1.74319 7.1779,-4.10162 3.2813,-2.46098 5.8448,-5.12703 0.5127,3.17876 1.1279,6.15243 0.7178,2.87114 1.8458,4.92195 z m -29.8393,-17.63697 q -4.7169,0 -8.2033,-1.12795 -3.4864,-1.23049 -5.8448,-3.2813 -2.3584,-2.05081 -3.5889,-4.92194 -1.2305,-2.97368 -1.2305,-6.35752 0,-4.10162 1.4356,-7.38291 1.5381,-3.2813 4.6143,-5.63973 3.4864,-2.7686 9.3312,-4.20416 5.8448,-1.53811 13.843,-1.53811 h 15.7912 v 20.5081 q -1.333,2.66606 -3.794,5.12703 -2.461,2.46097 -5.8448,4.40924 -3.3839,1.94827 -7.588,3.17876 -4.1016,1.23049 -8.921,1.23049 z"
             style="font-weight:500;-inkscape-font-specification:'Roboto Mono Medium'"
             id="path2182" /></g><g
           aria-label="Iced"
           id="text1756-1"
           style="font-weight:bold;font-size:210.003px;line-height:22.0502px;font-family:'Roboto Mono';-inkscape-font-specification:'Roboto Mono Bold';text-align:end;text-anchor:end;fill:#d9e7f3;stroke-width:1.83131;stroke-dashoffset:3.77953;paint-order:stroke fill markers"><path
             d="m -68.53737,17.255279 v 20.405565 h 31.172321 V 146.25127 H -68.53737 v 20.30302 H 19.442405 V 146.25127 H -12.4477 V 37.660844 H 19.442405 V 17.255279 Z"
             style="font-weight:500;-inkscape-font-specification:'Roboto Mono Medium'"
             id="path2185" /><path
             d="m 102.70531,148.91732 q -7.690538,0 -12.817564,-3.07622 -5.127027,-3.07621 -8.100702,-8.20324 -3.076216,-4.92194 -4.409243,-11.382 -1.230486,-6.56259 -1.230486,-13.33027 v -3.58892 q 0,-6.66513 1.230486,-13.125183 1.333027,-6.460053 4.511784,-11.484539 2.973675,-5.024486 7.998161,-8.100702 5.127026,-3.178757 12.817564,-3.178757 5.02449,0 9.33119,1.743189 4.40924,1.743189 7.588,4.716865 3.07622,2.973675 4.71686,6.972756 1.74319,3.99908 1.74319,8.510864 h 23.07162 q 0.10254,-9.228648 -3.38384,-16.919188 -3.38383,-7.690539 -9.53626,-13.227728 -6.15244,-5.537189 -14.76584,-8.613405 -8.51086,-3.076216 -18.55984,-3.076216 -12.715023,0 -22.353832,4.511784 -9.53627,4.409243 -15.996323,11.997242 -6.460053,7.587999 -9.74135,17.739512 -3.178757,10.151512 -3.178757,21.533506 v 3.58892 q 0,11.48454 3.281297,21.63606 3.281297,10.04897 9.74135,17.63697 6.357513,7.588 15.893783,12.09978 9.638809,4.40924 22.456372,4.40924 9.22865,0 17.53443,-2.97367 8.40833,-3.07622 14.86838,-8.40833 6.35751,-5.12702 10.04897,-12.20232 3.794,-7.17784 3.69146,-15.27854 h -23.07162 q 0,4.20416 -1.94827,7.69054 -1.84573,3.48638 -5.02448,6.04989 -3.2813,2.56352 -7.588,3.99908 -4.20416,1.33303 -8.81849,1.33303 z"
             style="font-weight:500;-inkscape-font-specification:'Roboto Mono Medium'"
             id="path2187" /><path
             d="m 232.214,168.6051 q 16.2014,0 27.5834,-6.35751 11.48454,-6.35751 17.02173,-14.35568 l -13.12519,-12.71502 q -5.12703,6.56259 -13.02265,10.15151 -7.89562,3.48638 -17.02172,3.48638 -6.66514,0 -12.30487,-2.25589 -5.53719,-2.25589 -9.63881,-6.35752 -4.10162,-3.89654 -6.46005,-8.81848 -2.35843,-4.92195 -3.48638,-12.20232 v -0.51271 h 76.9054 v -10.56167 q 0,-11.894703 -3.17876,-21.943675 -3.17875,-10.048972 -9.43373,-17.32935 -6.25497,-7.177837 -15.48362,-11.176917 -9.22864,-4.101622 -21.22589,-4.101622 -10.76675,0 -20.30302,4.101622 -9.43373,3.99908 -16.61157,11.484539 -7.17783,7.485459 -11.27946,18.047133 -4.10162,10.561675 -4.10162,23.58432 v 4.20416 q 0,11.382 3.89654,21.22589 3.99908,9.74135 11.27946,16.91919 7.28038,7.28038 17.43189,11.382 10.25405,4.10162 22.55892,4.10162 z m -2.97368,-95.157611 q 6.15243,0 10.76676,2.153351 4.71686,2.050811 7.79308,5.537189 3.17876,3.588919 4.92194,8.408324 1.74319,4.716864 1.74319,9.536269 v 1.640648 h -52.19313 q 1.12795,-6.357513 3.48638,-11.381999 2.35843,-5.024486 5.84481,-8.613404 3.48638,-3.486378 7.89562,-5.332108 4.51179,-1.94827 9.74135,-1.94827 z"
             style="font-weight:500;-inkscape-font-specification:'Roboto Mono Medium'"
             id="path2189" /><path
             d="m 303.17204,110.25954 v 2.15335 q 0,11.99724 3.07622,22.35384 3.07621,10.25405 8.71594,17.73951 5.63973,7.588 13.74043,11.8947 8.10071,4.20416 18.25222,4.20416 9.63881,0 17.02173,-3.48638 7.38291,-3.58892 12.71502,-10.15151 l 1.12795,11.58708 h 22.25129 V 9.0520363 H 375.56566 V 65.962031 q -5.33211,-5.947351 -12.30487,-9.126108 -6.87021,-3.281297 -16.09886,-3.281297 -10.25405,0 -18.4573,4.204162 -8.1007,4.101621 -13.74043,11.58708 -5.74227,7.485459 -8.81848,17.944593 -2.97368,10.356593 -2.97368,22.969079 z m 24.50719,2.15335 v -2.15335 q 0,-7.48546 1.43557,-14.048053 1.43556,-6.665134 4.61432,-11.68962 2.97368,-5.024486 7.79308,-7.895621 4.92195,-2.871135 11.79216,-2.871135 8.20324,0 13.53535,3.691459 5.43465,3.588919 8.71595,9.74135 v 47.68135 q -3.2813,6.25497 -8.71595,9.94643 -5.43465,3.58892 -13.74043,3.58892 -6.76767,0 -11.58708,-2.7686 -4.8194,-2.87113 -7.89562,-7.89562 -3.07622,-4.8194 -4.51178,-11.382 -1.43557,-6.56259 -1.43557,-13.94551 z"
             style="font-weight:500;-inkscape-font-specification:'Roboto Mono Medium'"
             id="path2191" /></g></g></g></g></svg>
