<?xml version="1.0" encoding="UTF-8" standalone="no"?>
<!-- Created with Inkscape (http://www.inkscape.org/) -->

<svg
   width="419.60001mm"
   height="216mm"
   viewBox="0 0 419.60001 216"
   version="1.1"
   id="svg1"
   xml:space="preserve"
   xmlns:inkscape="http://www.inkscape.org/namespaces/inkscape"
   xmlns:sodipodi="http://sodipodi.sourceforge.net/DTD/sodipodi-0.dtd"
   xmlns:xlink="http://www.w3.org/1999/xlink"
   xmlns="http://www.w3.org/2000/svg"
   xmlns:svg="http://www.w3.org/2000/svg"><sodipodi:namedview
     id="namedview1"
     pagecolor="#ffffff"
     bordercolor="#000000"
     borderopacity="1"
     inkscape:showpageshadow="0"
     inkscape:pageopacity="0"
     inkscape:pagecheckerboard="0"
     inkscape:deskcolor="#505050"
     inkscape:document-units="mm" /><defs
     id="defs1"><inkscape:path-effect
       effect="fillet_chamfer"
       id="path-effect6"
       is_visible="true"
       lpeversion="1"
       nodesatellites_param="F,0,0,1,0,5.2916667,0,1 @ F,0,0,1,0,5.2916667,0,1 @ F,0,0,1,0,5.2916667,0,1 @ F,0,0,1,0,5.2916667,0,1"
       radius="20"
       unit="px"
       method="auto"
       mode="F"
       chamfer_steps="1"
       flexible="false"
       use_knot_distance="true"
       apply_no_radius="true"
       apply_with_radius="true"
       only_selected="false"
       hide_knots="false" /><linearGradient
       id="linearGradient4"
       inkscape:collect="always"><stop
         style="stop-color:#404040;stop-opacity:1;"
         offset="0"
         id="stop4" /><stop
         style="stop-color:#000000;stop-opacity:1;"
         offset="1"
         id="stop5" /></linearGradient><inkscape:path-effect
       effect="fillet_chamfer"
       id="path-effect4"
       is_visible="true"
       lpeversion="1"
       nodesatellites_param="F,0,0,1,0,5.2916667,0,1 @ F,0,0,1,0,5.2916667,0,1 @ F,0,0,1,0,5.2916667,0,1 @ F,0,0,1,0,5.2916667,0,1"
       radius="20"
       unit="px"
       method="auto"
       mode="F"
       chamfer_steps="1"
       flexible="false"
       use_knot_distance="true"
       apply_no_radius="true"
       apply_with_radius="true"
       only_selected="false"
       hide_knots="false" /><inkscape:path-effect
       effect="fillet_chamfer"
       id="path-effect2"
       is_visible="true"
       lpeversion="1"
       nodesatellites_param="F,0,0,1,0,5.2916667,0,1 @ F,0,0,1,0,5.2916667,0,1 @ F,0,0,1,0,5.2916667,0,1 @ F,0,0,1,0,5.2916667,0,1"
       radius="20"
       unit="px"
       method="auto"
       mode="F"
       chamfer_steps="1"
       flexible="false"
       use_knot_distance="true"
       apply_no_radius="true"
       apply_with_radius="true"
       only_selected="false"
       hide_knots="false" /><filter
       inkscape:collect="always"
       style="color-interpolation-filters:sRGB"
       id="filter4"
       x="-0.29639938"
       y="-0.29639938"
       width="1.5927988"
       height="1.5927988"><feGaussianBlur
         inkscape:collect="always"
         stdDeviation="2.5329914"
         id="feGaussianBlur4" /></filter><linearGradient
       inkscape:collect="always"
       xlink:href="#linearGradient4"
       id="linearGradient5"
       x1="190.41875"
       y1="88.556358"
       x2="220.3"
       y2="118.49999"
       gradientUnits="userSpaceOnUse" /></defs><g
     inkscape:label="Layer 1"
     inkscape:groupmode="layer"
     id="layer1"><rect
       style="display:inline;fill:#171614;fill-opacity:1;stroke:none;stroke-width:0.755999"
       id="rect1"
       width="419.60001"
       height="215.99998"
       x="-9.5367432e-07"
       y="-9.5367432e-07" /><g
       id="g6"
       transform="matrix(1.3897513,0,0,1.3897513,-81.549119,-42.503981)"><path
         style="fill:#070707;fill-opacity:1;stroke:#000000;stroke-width:0.290414;stroke-opacity:1;filter:url(#filter4)"
         id="path2"
         width="20.999998"
         height="20.999998"
         x="199.3"
         y="97.499992"
         inkscape:path-effect="#path-effect4"
         sodipodi:type="rect"
         d="m 204.59167,97.499992 h 10.41666 A 5.2916667,5.2916667 45 0 1 220.3,102.79166 v 10.41666 a 5.2916667,5.2916667 135 0 1 -5.29167,5.29167 H 204.59167 A 5.2916667,5.2916667 45 0 1 199.3,113.20832 l 0,-10.41666 a 5.2916667,5.2916667 135 0 1 5.29167,-5.291668 z"
         transform="translate(3.4735226,4.0004027)" /><path
         style="fill:#1d1d1d;fill-opacity:1;stroke:none;stroke-width:0.290414;stroke-opacity:1;filter:url(#filter4)"
         id="path5"
         width="20.999998"
         height="20.999998"
         x="199.3"
         y="97.499992"
         inkscape:path-effect="#path-effect6"
         sodipodi:type="rect"
         d="m 204.59167,97.499992 h 10.41666 A 5.2916667,5.2916667 45 0 1 220.3,102.79166 v 10.41666 a 5.2916667,5.2916667 135 0 1 -5.29167,5.29167 H 204.59167 A 5.2916667,5.2916667 45 0 1 199.3,113.20832 l 0,-10.41666 a 5.2916667,5.2916667 135 0 1 5.29167,-5.291668 z"
         transform="translate(-4.6060417,-1.8921539)" /><path
         style="opacity:1;fill:#171614;fill-opacity:1;stroke:url(#linearGradient5);stroke-width:0.290414;stroke-opacity:1"
         id="rect2"
         width="20.999998"
         height="20.999998"
         x="199.3"
         y="97.499992"
         inkscape:path-effect="#path-effect2"
         sodipodi:type="rect"
         d="m 204.59167,97.499992 h 10.41666 A 5.2916667,5.2916667 45 0 1 220.3,102.79166 v 10.41666 a 5.2916667,5.2916667 135 0 1 -5.29167,5.29167 H 204.59167 A 5.2916667,5.2916667 45 0 1 199.3,113.20832 l 0,-10.41666 a 5.2916667,5.2916667 135 0 1 5.29167,-5.291668 z" /></g><g
       id="g7"
       style="stroke:#6e6e6e;stroke-width:0.8;stroke-dasharray:none;stroke-opacity:0.235294"><path
         id="rect3234"
         style="fill:#f96262;fill-opacity:1;stroke:#6e6e6e;stroke-width:0.8;stroke-linecap:round;stroke-linejoin:round;stroke-dasharray:none;stroke-dashoffset:51.8856;stroke-opacity:0.235294;paint-order:markers stroke fill"
         d="m 200.3547,103.92699 c -0.38082,0 -0.6873,0.30648 -0.6873,0.6873 v 0.73794 c 0,0.38081 0.30648,0.68729 0.6873,0.68729 h 8.80618 l -3.51607,3.51607 c -0.26927,0.26927 -0.26927,0.70275 0,0.97203 l 0.52193,0.52193 c 0.26928,0.26928 0.70276,0.26928 0.97204,0 l 5.00434,-5.00434 c 0.16082,-0.16082 0.22454,-0.38006 0.19327,-0.58808 0.005,-0.0342 0.009,-0.0692 0.009,-0.1049 v -0.73794 c 0,-0.38082 -0.307,-0.6873 -0.68782,-0.6873 z" /><path
         id="rect4910"
         style="fill:#9c82fa;fill-opacity:1;stroke:#6e6e6e;stroke-width:0.8;stroke-linecap:round;stroke-linejoin:round;stroke-dasharray:none;stroke-dashoffset:42.3645;stroke-opacity:0.235294;paint-order:markers stroke fill"
         d="m 78.596242,225.5712 c -0.124245,-0.12424 -0.295585,-0.20097 -0.485992,-0.20097 h -7.077213 c -0.227812,0 -0.428292,0.11021 -0.553227,0.2799 -0.02764,0.0204 -0.0546,0.0422 -0.07966,0.0672 l -0.522168,0.52217 c -0.269275,0.26928 -0.269275,0.70271 0,0.97199 l 6.797312,6.79731 c 0.269275,0.26927 0.702708,0.26927 0.971984,0 l 0.522167,-0.52217 c 0.269276,-0.26928 0.269276,-0.70271 0,-0.97198 l -5.031662,-5.03167 4.383064,3.7e-4 2.839947,2.83995 c 0.269276,0.26927 0.702709,0.26927 0.971984,0 l 0.521802,-0.52181 c 0.269276,-0.26927 0.269276,-0.7027 0,-0.97198 l -3.062115,-3.06212 c -0.03366,-0.0336 -0.07001,-0.0632 -0.108161,-0.0884 -0.02562,-0.0389 -0.05528,-0.075 -0.08806,-0.1078 z"
         transform="rotate(-45)" /></g></g></svg>
