<?xml version="1.0" encoding="UTF-8" standalone="no"?>
<!-- Created with Inkscape (http://www.inkscape.org/) -->

<svg
   width="419.60001mm"
   height="216mm"
   viewBox="0 0 419.60001 216"
   version="1.1"
   id="svg1"
   xml:space="preserve"
   sodipodi:docname="Minimalist IT Logo Wallpaper (Neumorphism) 2.svg"
   inkscape:export-filename="Minimalist IT Logo Wallpaper (Neumorphism) 2.png"
   inkscape:export-xdpi="254"
   inkscape:export-ydpi="254"
   xmlns:inkscape="http://www.inkscape.org/namespaces/inkscape"
   xmlns:sodipodi="http://sodipodi.sourceforge.net/DTD/sodipodi-0.dtd"
   xmlns:xlink="http://www.w3.org/1999/xlink"
   xmlns="http://www.w3.org/2000/svg"
   xmlns:svg="http://www.w3.org/2000/svg"><sodipodi:namedview
     id="namedview1"
     pagecolor="#ffffff"
     bordercolor="#000000"
     borderopacity="1"
     inkscape:showpageshadow="0"
     inkscape:pageopacity="0"
     inkscape:pagecheckerboard="0"
     inkscape:deskcolor="#505050"
     inkscape:document-units="mm" /><defs
     id="defs1"><linearGradient
       id="linearGradient2"
       inkscape:collect="always"><stop
         style="stop-color:#3b3b3b;stop-opacity:1;"
         offset="0"
         id="stop2" /><stop
         style="stop-color:#000000;stop-opacity:1;"
         offset="1"
         id="stop3" /></linearGradient><inkscape:path-effect
       effect="fillet_chamfer"
       id="path-effect6"
       is_visible="true"
       lpeversion="1"
       nodesatellites_param="F,0,0,1,0,5.2916667,0,1 @ F,0,0,1,0,5.2916667,0,1 @ F,0,0,1,0,5.2916667,0,1 @ F,0,0,1,0,5.2916667,0,1"
       radius="20"
       unit="px"
       method="auto"
       mode="F"
       chamfer_steps="1"
       flexible="false"
       use_knot_distance="true"
       apply_no_radius="true"
       apply_with_radius="true"
       only_selected="false"
       hide_knots="false" /><linearGradient
       id="linearGradient4"
       inkscape:collect="always"><stop
         style="stop-color:#5b5b5b;stop-opacity:1;"
         offset="0"
         id="stop4" /><stop
         style="stop-color:#000000;stop-opacity:1;"
         offset="1"
         id="stop5" /></linearGradient><inkscape:path-effect
       effect="fillet_chamfer"
       id="path-effect4"
       is_visible="true"
       lpeversion="1"
       nodesatellites_param="F,0,0,1,0,5.2916667,0,1 @ F,0,0,1,0,5.2916667,0,1 @ F,0,0,1,0,5.2916667,0,1 @ F,0,0,1,0,5.2916667,0,1"
       radius="20"
       unit="px"
       method="auto"
       mode="F"
       chamfer_steps="1"
       flexible="false"
       use_knot_distance="true"
       apply_no_radius="true"
       apply_with_radius="true"
       only_selected="false"
       hide_knots="false" /><inkscape:path-effect
       effect="fillet_chamfer"
       id="path-effect2"
       is_visible="true"
       lpeversion="1"
       nodesatellites_param="F,0,0,1,0,5.2916667,0,1 @ F,0,0,1,0,5.2916667,0,1 @ F,0,0,1,0,5.2916667,0,1 @ F,0,0,1,0,5.2916667,0,1"
       radius="20"
       unit="px"
       method="auto"
       mode="F"
       chamfer_steps="1"
       flexible="false"
       use_knot_distance="true"
       apply_no_radius="true"
       apply_with_radius="true"
       only_selected="false"
       hide_knots="false" /><filter
       inkscape:collect="always"
       style="color-interpolation-filters:sRGB"
       id="filter4"
       x="-0.29639938"
       y="-0.29639938"
       width="1.5927988"
       height="1.5927988"><feGaussianBlur
         inkscape:collect="always"
         stdDeviation="2.5329914"
         id="feGaussianBlur4" /></filter><linearGradient
       inkscape:collect="always"
       xlink:href="#linearGradient4"
       id="linearGradient5"
       x1="199.3"
       y1="97.499992"
       x2="226.69179"
       y2="124.89178"
       gradientUnits="userSpaceOnUse" /><linearGradient
       inkscape:collect="always"
       xlink:href="#linearGradient2"
       id="linearGradient3"
       x1="226.69179"
       y1="124.89178"
       x2="199.3"
       y2="97.499992"
       gradientUnits="userSpaceOnUse" /><filter
       inkscape:collect="always"
       style="color-interpolation-filters:sRGB"
       id="filter9"
       x="-0.044009086"
       y="-0.085273672"
       width="1.0880182"
       height="1.1705473"><feGaussianBlur
         inkscape:collect="always"
         stdDeviation="5.610922"
         id="feGaussianBlur9" /></filter></defs><g
     inkscape:label="Layer 1"
     inkscape:groupmode="layer"
     id="layer1"><rect
       style="display:inline;fill:#201e1b;fill-opacity:1;stroke:none;stroke-width:0.755999"
       id="rect1"
       width="419.60001"
       height="215.99998"
       x="-9.5367432e-07"
       y="-9.5367432e-07" /><g
       id="g6"
       transform="matrix(1.3897513,0,0,1.3897513,-81.549119,-42.503981)"><path
         style="fill:#070707;fill-opacity:1;stroke:#000000;stroke-width:0.290414;stroke-opacity:1;filter:url(#filter4)"
         id="path2"
         width="20.999998"
         height="20.999998"
         x="199.3"
         y="97.499992"
         inkscape:path-effect="#path-effect4"
         sodipodi:type="rect"
         d="m 204.59167,97.499992 h 10.41666 A 5.2916667,5.2916667 45 0 1 220.3,102.79166 v 10.41666 a 5.2916667,5.2916667 135 0 1 -5.29167,5.29167 H 204.59167 A 5.2916667,5.2916667 45 0 1 199.3,113.20832 l 0,-10.41666 a 5.2916667,5.2916667 135 0 1 5.29167,-5.291668 z"
         transform="translate(3.4735226,4.0004027)" /><path
         style="fill:#3d3d3d;fill-opacity:1;stroke:none;stroke-width:0.290414;stroke-opacity:1;filter:url(#filter4)"
         id="path5"
         width="20.999998"
         height="20.999998"
         x="199.3"
         y="97.499992"
         inkscape:path-effect="#path-effect6"
         sodipodi:type="rect"
         d="m 204.59167,97.499992 h 10.41666 A 5.2916667,5.2916667 45 0 1 220.3,102.79166 v 10.41666 a 5.2916667,5.2916667 135 0 1 -5.29167,5.29167 H 204.59167 A 5.2916667,5.2916667 45 0 1 199.3,113.20832 l 0,-10.41666 a 5.2916667,5.2916667 135 0 1 5.29167,-5.291668 z"
         transform="translate(-4.6060417,-1.8921539)" /><path
         style="opacity:1;fill:url(#linearGradient3);fill-opacity:1;stroke:url(#linearGradient5);stroke-width:0.290414;stroke-opacity:1"
         id="rect2"
         width="20.999998"
         height="20.999998"
         x="199.3"
         y="97.499992"
         inkscape:path-effect="#path-effect2"
         sodipodi:type="rect"
         d="m 204.59167,97.499992 h 10.41666 A 5.2916667,5.2916667 45 0 1 220.3,102.79166 v 10.41666 a 5.2916667,5.2916667 135 0 1 -5.29167,5.29167 H 204.59167 A 5.2916667,5.2916667 45 0 1 199.3,113.20832 l 0,-10.41666 a 5.2916667,5.2916667 135 0 1 5.29167,-5.291668 z" /></g><g
       id="g7"
       style="stroke:#6e6e6e;stroke-width:0.8;stroke-dasharray:none;stroke-opacity:0.235294"><path
         id="rect3234"
         style="fill:#f96262;fill-opacity:1;stroke:#6e6e6e;stroke-width:0.8;stroke-linecap:round;stroke-linejoin:round;stroke-dasharray:none;stroke-dashoffset:51.8856;stroke-opacity:0.235294;paint-order:markers stroke fill"
         d="m 200.3547,103.92699 c -0.38082,0 -0.6873,0.30648 -0.6873,0.6873 v 0.73794 c 0,0.38081 0.30648,0.68729 0.6873,0.68729 h 8.80618 l -3.51607,3.51607 c -0.26927,0.26927 -0.26927,0.70275 0,0.97203 l 0.52193,0.52193 c 0.26928,0.26928 0.70276,0.26928 0.97204,0 l 5.00434,-5.00434 c 0.16082,-0.16082 0.22454,-0.38006 0.19327,-0.58808 0.005,-0.0342 0.009,-0.0692 0.009,-0.1049 v -0.73794 c 0,-0.38082 -0.307,-0.6873 -0.68782,-0.6873 z" /><path
         id="rect4910"
         style="fill:#9c82fa;fill-opacity:1;stroke:#6e6e6e;stroke-width:0.8;stroke-linecap:round;stroke-linejoin:round;stroke-dasharray:none;stroke-dashoffset:42.3645;stroke-opacity:0.235294;paint-order:markers stroke fill"
         d="m 78.596242,225.5712 c -0.124245,-0.12424 -0.295585,-0.20097 -0.485992,-0.20097 h -7.077213 c -0.227812,0 -0.428292,0.11021 -0.553227,0.2799 -0.02764,0.0204 -0.0546,0.0422 -0.07966,0.0672 l -0.522168,0.52217 c -0.269275,0.26928 -0.269275,0.70271 0,0.97199 l 6.797312,6.79731 c 0.269275,0.26927 0.702708,0.26927 0.971984,0 l 0.522167,-0.52217 c 0.269276,-0.26928 0.269276,-0.70271 0,-0.97198 l -5.031662,-5.03167 4.383064,3.7e-4 2.839947,2.83995 c 0.269276,0.26927 0.702709,0.26927 0.971984,0 l 0.521802,-0.52181 c 0.269276,-0.26927 0.269276,-0.7027 0,-0.97198 l -3.062115,-3.06212 c -0.03366,-0.0336 -0.07001,-0.0632 -0.108161,-0.0884 -0.02562,-0.0389 -0.05528,-0.075 -0.08806,-0.1078 z"
         transform="rotate(-45)" /></g><g
       id="g9"
       style="stroke:#000000;stroke-width:10;stroke-linecap:round;stroke-linejoin:round;stroke-dasharray:none;stroke-opacity:0.165217;filter:url(#filter9)"><path
         style="fill:#201e1b;fill-opacity:1;stroke:#000000;stroke-width:10;stroke-linecap:round;stroke-linejoin:round;stroke-dasharray:none;stroke-opacity:0.165217"
         d="m 56.645188,216 c 0,0 -21.927169,-34.18722 4.111344,-50.6326 C 86.795045,148.92202 117.85853,133.39038 109.17903,111.64818 100.49953,89.905974 92.276836,63.954244 113.74719,47.965682 135.21754,31.977121 156.6879,16.445377 143.44023,0"
         id="path3" /><path
         style="fill:#201e1b;fill-opacity:1;stroke:#000000;stroke-width:10;stroke-linecap:round;stroke-linejoin:round;stroke-dasharray:none;stroke-opacity:0.165217"
         d="m 248.50792,-0.23713031 c 0,0 -8.22269,26.73246031 10.04995,39.06649131 18.27265,12.334033 40.19981,21.077247 37.45891,42.887425 -2.7409,21.810174 -7.76586,53.957574 5.02497,64.007524 12.79086,10.04995 25.12488,14.69211 23.29762,42.48389 -1.82727,27.79178 -12.79083,11.27241 -19.18626,27.79178"
         id="path4" /><path
         style="fill:#201e1b;fill-opacity:1;stroke:#000000;stroke-width:10;stroke-linecap:round;stroke-linejoin:round;stroke-dasharray:none;stroke-opacity:0.165217"
         d="M 337.13023,-0.34826149 C 346.72336,53.904289 371.39141,36.258738 358.60058,69.892851 345.80972,103.52696 327.5371,114.72455 348.55062,136.39145 c 21.01355,21.66689 43.39753,59.58261 32.89077,79.60853"
         id="path6"
         sodipodi:nodetypes="cssc" /><path
         style="fill:#201e1b;fill-opacity:1;stroke:#000000;stroke-width:10;stroke-linecap:round;stroke-linejoin:round;stroke-dasharray:none;stroke-opacity:0.165217"
         d="m 155.31745,216.20407 c -13.70448,-47.18214 -18.71183,-77.332 15.98856,-71.85021 34.70038,5.48179 35.75447,41.57026 53.50888,29.69304 17.75442,-11.87721 37.39751,-28.32259 47.90427,-10.96358 10.50676,17.35901 19.80536,35.70563 12.87198,44.31115 C 278.65776,216 278.65776,216 278.65776,216"
         id="path7" /><path
         style="fill:#201e1b;fill-opacity:1;stroke:#000000;stroke-width:10;stroke-linecap:round;stroke-linejoin:round;stroke-dasharray:none;stroke-opacity:0.165217"
         d="M -9.5367431e-7,107.99999 C 36.088465,89.905974 55.606304,103.69724 51.62021,69.892851 47.634117,36.088465 47.052049,26.49533 61.213346,20.099905 75.374645,13.704481 84.054147,-0.23713031 84.054147,-0.23713031"
         id="path8" /><path
         style="fill:#201e1b;fill-opacity:1;stroke:#000000;stroke-width:10;stroke-linecap:round;stroke-linejoin:round;stroke-dasharray:none;stroke-opacity:0.165217"
         d="M 419.6,143.3341 C 391.49133,122.38333 381.44137,125.33714 396.5163,103.52696 411.59123,81.716786 412.04806,73.547379 407.02306,58.47245 401.9981,43.397521 419.6,24.211249 419.6,24.211249"
         id="path9" /></g></g></svg>
